<mxfile host="app.diagrams.net" modified="2023-05-24T03:36:25.131Z" agent="Mozilla/5.0 (Windows NT 10.0; Win64; x64) AppleWebKit/537.36 (KHTML, like Gecko) Chrome/113.0.0.0 Safari/537.36 Edg/113.0.1774.50" etag="b1El5d_p68n6Hu11_byB" version="21.3.3" type="github">
  <diagram name="Page-1" id="gVi9mgfXxvacq5aYQprg">
    <mxGraphModel dx="1379" dy="756" grid="1" gridSize="10" guides="1" tooltips="1" connect="1" arrows="1" fold="1" page="1" pageScale="1" pageWidth="827" pageHeight="1169" math="0" shadow="0">
      <root>
        <mxCell id="0" />
        <mxCell id="1" parent="0" />
        <mxCell id="5Q-SjYnBWKxw_cxFPoE4-17" value="" style="rounded=0;whiteSpace=wrap;html=1;" vertex="1" parent="1">
          <mxGeometry x="355" y="135" width="190" height="310" as="geometry" />
        </mxCell>
        <mxCell id="5Q-SjYnBWKxw_cxFPoE4-1" value="Administrar locaciones" style="ellipse;whiteSpace=wrap;html=1;" vertex="1" parent="1">
          <mxGeometry x="390" y="160" width="120" height="50" as="geometry" />
        </mxCell>
        <mxCell id="5Q-SjYnBWKxw_cxFPoE4-2" value="&lt;font style=&quot;font-size: 17px;&quot;&gt;Diagramas de casos de usos&lt;/font&gt;" style="text;html=1;align=center;verticalAlign=middle;resizable=0;points=[];autosize=1;strokeColor=none;fillColor=none;fontStyle=1" vertex="1" parent="1">
          <mxGeometry x="315" y="50" width="260" height="30" as="geometry" />
        </mxCell>
        <mxCell id="5Q-SjYnBWKxw_cxFPoE4-3" value="&lt;b&gt;Nivel 0&lt;br&gt;Nivel contexto&lt;/b&gt;" style="text;html=1;align=center;verticalAlign=middle;resizable=0;points=[];autosize=1;strokeColor=none;fillColor=none;fontSize=17;" vertex="1" parent="1">
          <mxGeometry x="375" y="85" width="140" height="50" as="geometry" />
        </mxCell>
        <mxCell id="5Q-SjYnBWKxw_cxFPoE4-4" value="Usuario" style="shape=umlActor;verticalLabelPosition=bottom;verticalAlign=top;html=1;outlineConnect=0;fontSize=17;" vertex="1" parent="1">
          <mxGeometry x="590" y="315" width="30" height="60" as="geometry" />
        </mxCell>
        <mxCell id="5Q-SjYnBWKxw_cxFPoE4-6" value="Administrador" style="shape=umlActor;verticalLabelPosition=bottom;verticalAlign=top;html=1;outlineConnect=0;fontSize=17;" vertex="1" parent="1">
          <mxGeometry x="240" y="245" width="30" height="60" as="geometry" />
        </mxCell>
        <mxCell id="5Q-SjYnBWKxw_cxFPoE4-7" value="" style="endArrow=none;html=1;rounded=0;fontSize=17;entryX=0.5;entryY=0.5;entryDx=0;entryDy=0;entryPerimeter=0;exitX=0;exitY=0.5;exitDx=0;exitDy=0;" edge="1" parent="1" source="5Q-SjYnBWKxw_cxFPoE4-1" target="5Q-SjYnBWKxw_cxFPoE4-6">
          <mxGeometry width="50" height="50" relative="1" as="geometry">
            <mxPoint x="390" y="410" as="sourcePoint" />
            <mxPoint x="440" y="360" as="targetPoint" />
          </mxGeometry>
        </mxCell>
        <mxCell id="5Q-SjYnBWKxw_cxFPoE4-8" value="Generar recomendaciones" style="ellipse;whiteSpace=wrap;html=1;" vertex="1" parent="1">
          <mxGeometry x="390" y="320" width="120" height="50" as="geometry" />
        </mxCell>
        <mxCell id="5Q-SjYnBWKxw_cxFPoE4-9" value="" style="endArrow=none;html=1;rounded=0;fontSize=17;entryX=0.5;entryY=0.5;entryDx=0;entryDy=0;entryPerimeter=0;exitX=1;exitY=0.5;exitDx=0;exitDy=0;" edge="1" parent="1" source="5Q-SjYnBWKxw_cxFPoE4-8" target="5Q-SjYnBWKxw_cxFPoE4-4">
          <mxGeometry width="50" height="50" relative="1" as="geometry">
            <mxPoint x="390" y="400" as="sourcePoint" />
            <mxPoint x="440" y="350" as="targetPoint" />
          </mxGeometry>
        </mxCell>
        <mxCell id="5Q-SjYnBWKxw_cxFPoE4-10" value="" style="endArrow=none;html=1;rounded=0;fontSize=17;entryX=0.5;entryY=0.5;entryDx=0;entryDy=0;entryPerimeter=0;exitX=0;exitY=0.5;exitDx=0;exitDy=0;" edge="1" parent="1" source="5Q-SjYnBWKxw_cxFPoE4-8" target="5Q-SjYnBWKxw_cxFPoE4-6">
          <mxGeometry width="50" height="50" relative="1" as="geometry">
            <mxPoint x="710" y="380" as="sourcePoint" />
            <mxPoint x="760" y="330" as="targetPoint" />
          </mxGeometry>
        </mxCell>
        <mxCell id="5Q-SjYnBWKxw_cxFPoE4-11" value="Sistema" style="text;html=1;strokeColor=none;fillColor=none;align=center;verticalAlign=middle;whiteSpace=wrap;rounded=0;" vertex="1" parent="1">
          <mxGeometry x="415" y="260" width="60" height="30" as="geometry" />
        </mxCell>
        <mxCell id="5Q-SjYnBWKxw_cxFPoE4-18" value="&lt;b&gt;Nivel 1&lt;br&gt;Administrar locaciones&lt;br&gt;&lt;/b&gt;" style="text;html=1;align=center;verticalAlign=middle;resizable=0;points=[];autosize=1;strokeColor=none;fillColor=none;fontSize=17;" vertex="1" parent="1">
          <mxGeometry x="340" y="470" width="210" height="50" as="geometry" />
        </mxCell>
        <mxCell id="5Q-SjYnBWKxw_cxFPoE4-19" value="Editar un hotel" style="ellipse;whiteSpace=wrap;html=1;" vertex="1" parent="1">
          <mxGeometry x="390" y="585" width="120" height="50" as="geometry" />
        </mxCell>
        <mxCell id="5Q-SjYnBWKxw_cxFPoE4-20" value="Eliminar un hotel" style="ellipse;whiteSpace=wrap;html=1;" vertex="1" parent="1">
          <mxGeometry x="385" y="640" width="120" height="50" as="geometry" />
        </mxCell>
        <mxCell id="5Q-SjYnBWKxw_cxFPoE4-21" value="Crear una zona" style="ellipse;whiteSpace=wrap;html=1;" vertex="1" parent="1">
          <mxGeometry x="390" y="695" width="120" height="50" as="geometry" />
        </mxCell>
        <mxCell id="5Q-SjYnBWKxw_cxFPoE4-23" value="Administrador" style="shape=umlActor;verticalLabelPosition=bottom;verticalAlign=top;html=1;outlineConnect=0;fontSize=17;" vertex="1" parent="1">
          <mxGeometry x="285" y="630" width="30" height="60" as="geometry" />
        </mxCell>
        <mxCell id="5Q-SjYnBWKxw_cxFPoE4-25" value="" style="endArrow=none;html=1;rounded=0;fontSize=17;entryX=0.5;entryY=0.5;entryDx=0;entryDy=0;entryPerimeter=0;exitX=0;exitY=0.5;exitDx=0;exitDy=0;" edge="1" parent="1" source="5Q-SjYnBWKxw_cxFPoE4-20" target="5Q-SjYnBWKxw_cxFPoE4-23">
          <mxGeometry width="50" height="50" relative="1" as="geometry">
            <mxPoint x="530" y="740" as="sourcePoint" />
            <mxPoint x="580" y="690" as="targetPoint" />
          </mxGeometry>
        </mxCell>
        <mxCell id="5Q-SjYnBWKxw_cxFPoE4-26" value="" style="endArrow=none;html=1;rounded=0;fontSize=17;entryX=0.5;entryY=0.5;entryDx=0;entryDy=0;entryPerimeter=0;exitX=0;exitY=0.5;exitDx=0;exitDy=0;" edge="1" parent="1" source="5Q-SjYnBWKxw_cxFPoE4-19" target="5Q-SjYnBWKxw_cxFPoE4-23">
          <mxGeometry width="50" height="50" relative="1" as="geometry">
            <mxPoint x="390" y="630" as="sourcePoint" />
            <mxPoint x="440" y="580" as="targetPoint" />
          </mxGeometry>
        </mxCell>
        <mxCell id="5Q-SjYnBWKxw_cxFPoE4-27" value="" style="endArrow=none;html=1;rounded=0;fontSize=17;exitX=0.5;exitY=0.5;exitDx=0;exitDy=0;exitPerimeter=0;entryX=0;entryY=0.5;entryDx=0;entryDy=0;" edge="1" parent="1" source="5Q-SjYnBWKxw_cxFPoE4-23" target="5Q-SjYnBWKxw_cxFPoE4-21">
          <mxGeometry width="50" height="50" relative="1" as="geometry">
            <mxPoint x="390" y="630" as="sourcePoint" />
            <mxPoint x="440" y="580" as="targetPoint" />
          </mxGeometry>
        </mxCell>
        <mxCell id="5Q-SjYnBWKxw_cxFPoE4-31" value="&lt;b&gt;Nivel 1&lt;br&gt;Generar recomendaciones&lt;/b&gt;" style="text;html=1;align=center;verticalAlign=middle;resizable=0;points=[];autosize=1;strokeColor=none;fillColor=none;fontSize=17;" vertex="1" parent="1">
          <mxGeometry x="342.5" y="880" width="240" height="50" as="geometry" />
        </mxCell>
        <mxCell id="5Q-SjYnBWKxw_cxFPoE4-36" value="Usuario" style="shape=umlActor;verticalLabelPosition=bottom;verticalAlign=top;html=1;outlineConnect=0;fontSize=17;" vertex="1" parent="1">
          <mxGeometry x="567.5" y="990" width="30" height="60" as="geometry" />
        </mxCell>
        <mxCell id="5Q-SjYnBWKxw_cxFPoE4-37" value="" style="endArrow=none;html=1;rounded=0;fontSize=17;entryX=0.5;entryY=0.5;entryDx=0;entryDy=0;entryPerimeter=0;exitX=1;exitY=0.5;exitDx=0;exitDy=0;" edge="1" parent="1" source="5Q-SjYnBWKxw_cxFPoE4-56" target="5Q-SjYnBWKxw_cxFPoE4-36">
          <mxGeometry width="50" height="50" relative="1" as="geometry">
            <mxPoint x="497.5" y="1015" as="sourcePoint" />
            <mxPoint x="467.5" y="1160" as="targetPoint" />
          </mxGeometry>
        </mxCell>
        <mxCell id="5Q-SjYnBWKxw_cxFPoE4-38" value="Administrador" style="shape=umlActor;verticalLabelPosition=bottom;verticalAlign=top;html=1;outlineConnect=0;" vertex="1" parent="1">
          <mxGeometry x="302.5" y="990" width="30" height="60" as="geometry" />
        </mxCell>
        <mxCell id="5Q-SjYnBWKxw_cxFPoE4-43" value="" style="endArrow=none;html=1;rounded=0;fontSize=17;exitX=0.5;exitY=0.5;exitDx=0;exitDy=0;exitPerimeter=0;entryX=0;entryY=0.5;entryDx=0;entryDy=0;" edge="1" parent="1" source="5Q-SjYnBWKxw_cxFPoE4-38" target="5Q-SjYnBWKxw_cxFPoE4-56">
          <mxGeometry width="50" height="50" relative="1" as="geometry">
            <mxPoint x="210" y="1010" as="sourcePoint" />
            <mxPoint x="415" y="1020" as="targetPoint" />
          </mxGeometry>
        </mxCell>
        <mxCell id="5Q-SjYnBWKxw_cxFPoE4-48" value="Crear un hotel" style="ellipse;whiteSpace=wrap;html=1;" vertex="1" parent="1">
          <mxGeometry x="390" y="530" width="120" height="50" as="geometry" />
        </mxCell>
        <mxCell id="5Q-SjYnBWKxw_cxFPoE4-49" value="" style="endArrow=none;html=1;rounded=0;fontSize=17;entryX=0.5;entryY=0.5;entryDx=0;entryDy=0;entryPerimeter=0;exitX=0;exitY=0.5;exitDx=0;exitDy=0;" edge="1" parent="1" source="5Q-SjYnBWKxw_cxFPoE4-48" target="5Q-SjYnBWKxw_cxFPoE4-23">
          <mxGeometry width="50" height="50" relative="1" as="geometry">
            <mxPoint x="400" y="620" as="sourcePoint" />
            <mxPoint x="165" y="670" as="targetPoint" />
          </mxGeometry>
        </mxCell>
        <mxCell id="5Q-SjYnBWKxw_cxFPoE4-54" value="Eliminar una zona" style="ellipse;whiteSpace=wrap;html=1;" vertex="1" parent="1">
          <mxGeometry x="390" y="745" width="120" height="50" as="geometry" />
        </mxCell>
        <mxCell id="5Q-SjYnBWKxw_cxFPoE4-55" value="" style="endArrow=none;html=1;rounded=0;fontSize=17;entryX=0;entryY=0.5;entryDx=0;entryDy=0;exitX=0.5;exitY=0.5;exitDx=0;exitDy=0;exitPerimeter=0;" edge="1" parent="1" source="5Q-SjYnBWKxw_cxFPoE4-23" target="5Q-SjYnBWKxw_cxFPoE4-54">
          <mxGeometry width="50" height="50" relative="1" as="geometry">
            <mxPoint x="130" y="670" as="sourcePoint" />
            <mxPoint x="400" y="785" as="targetPoint" />
          </mxGeometry>
        </mxCell>
        <mxCell id="5Q-SjYnBWKxw_cxFPoE4-56" value="Generar una consulta" style="ellipse;whiteSpace=wrap;html=1;" vertex="1" parent="1">
          <mxGeometry x="392.5" y="995" width="120" height="50" as="geometry" />
        </mxCell>
      </root>
    </mxGraphModel>
  </diagram>
</mxfile>
